<?xml version="1.0" encoding="utf-8"?>
<!-- Generator: Adobe Illustrator 24.1.2, SVG Export Plug-In . SVG Version: 6.00 Build 0)  -->
<svg version="1.1" id="Warstwa_3" xmlns="http://www.w3.org/2000/svg" xmlns:xlink="http://www.w3.org/1999/xlink" x="0px" y="0px"
	 viewBox="0 0 430 430" style="enable-background:new 0 0 430 430;" xml:space="preserve">
<style type="text/css">
	.st0{fill:#121331;}
	.st1{fill:#08A789;}
	.st2{fill:#08A88A;}
	.st3{fill:none;stroke:#08A789;stroke-width:12;stroke-linecap:round;stroke-linejoin:round;stroke-miterlimit:10;}
</style>
<g>
	<g>
		<path class="st1" d="M214.91,276.47c-6.64,0-13.29-1.29-19.48-3.86c-1.78-0.74-3.59-1.21-5.44-1.42l-8-0.92
			c-5.23-0.6-9.17-5.03-9.17-10.29v-8.07c0-16.61,13.51-30.12,30.12-30.12h24.12c16.61,0,30.12,13.51,30.12,30.12v8.07
			c0,5.26-3.94,9.69-9.17,10.29l-8.44,0.98c-1.75,0.2-3.46,0.65-5.08,1.33C228.27,275.17,221.59,276.47,214.91,276.47z
			 M184.83,258.52l6.54,0.75c2.96,0.34,5.86,1.09,8.61,2.24c9.54,3.96,20.41,3.95,29.88-0.01c2.66-1.11,5.46-1.84,8.33-2.18
			l6.99-0.81v-6.6c0-9.99-8.13-18.12-18.12-18.12h-24.12c-9.99,0-18.12,8.13-18.12,18.12V258.52z"/>
		<path class="st1" d="M215,216.35c-12.63,0-22.87-9.89-23.31-22.51l-0.56-16.21c-0.22-6.38,2.1-12.42,6.53-17.01
			c4.43-4.59,10.39-7.12,16.77-7.12h1.13c6.38,0,12.34,2.53,16.77,7.12c4.43,4.59,6.75,10.63,6.53,17.01l-0.56,16.21
			C237.87,206.46,227.63,216.35,215,216.35z M214.44,165.5c-3.1,0-5.99,1.23-8.14,3.46s-3.28,5.16-3.17,8.26l0.56,16.21
			c0.21,6.13,5.18,10.93,11.31,10.93s11.1-4.8,11.31-10.93l0.56-16.21c0.11-3.1-1.02-6.03-3.17-8.26s-5.04-3.46-8.14-3.46H214.44z"
			/>
	</g>
	<path class="st0" d="M370.01,266.75c-7.56-4.37-16.37-5.53-24.8-3.27c-6.47,1.73-12.11,5.32-16.37,10.31l-30.48-17.6
		c6.17-12.43,9.64-26.41,9.64-41.2s-3.47-28.77-9.64-41.2l30.48-17.6c4.25,4.99,9.9,8.58,16.37,10.31c2.82,0.75,5.67,1.13,8.51,1.13
		c5.66,0,11.25-1.49,16.29-4.39c15.61-9.01,20.98-29.04,11.96-44.65c-4.37-7.56-11.41-12.97-19.85-15.23
		c-8.43-2.26-17.24-1.1-24.8,3.27c-7.56,4.37-12.97,11.41-15.23,19.85c-1.73,6.47-1.45,13.15,0.74,19.33l-30.5,17.61
		c-15.65-23.39-41.62-39.32-71.34-41.22V87.01c15.17-2.83,26.69-16.15,26.69-32.12c0-18.02-14.66-32.69-32.69-32.69
		s-32.69,14.66-32.69,32.69c0,15.97,11.52,29.3,26.69,32.12v35.19c-29.72,1.9-55.67,17.84-71.33,41.23l-30.51-17.62
		c2.19-6.18,2.48-12.86,0.74-19.33c-2.26-8.43-7.67-15.48-15.23-19.85c-7.56-4.37-16.37-5.53-24.8-3.27
		c-8.43,2.26-15.48,7.67-19.85,15.23c-9.01,15.61-3.64,35.64,11.96,44.65c5.04,2.91,10.63,4.39,16.29,4.39
		c2.84,0,5.7-0.37,8.51-1.13c6.47-1.73,12.11-5.32,16.37-10.31l30.5,17.61c-6.17,12.42-9.66,26.4-9.66,41.19
		c0,14.79,3.47,28.77,9.64,41.2l-30.48,17.6c-4.25-4.99-9.9-8.58-16.37-10.31c-8.43-2.26-17.24-1.1-24.8,3.27
		c-15.61,9.01-20.98,29.04-11.96,44.65c4.37,7.56,11.41,12.97,19.85,15.23c2.82,0.75,5.67,1.13,8.51,1.13
		c5.66,0,11.25-1.49,16.29-4.39c7.56-4.37,12.97-11.41,15.23-19.85c1.73-6.47,1.45-13.15-0.74-19.33l30.5-17.61
		c15.65,23.39,41.62,39.32,71.34,41.22v35.19c-15.17,2.83-26.69,16.15-26.69,32.12c0,18.02,14.66,32.69,32.69,32.69
		s32.69-14.66,32.69-32.69c0-15.97-11.52-29.3-26.69-32.12v-35.19c29.72-1.9,55.69-17.83,71.34-41.23l30.5,17.61
		c-2.19,6.18-2.48,12.86-0.74,19.33c2.26,8.43,7.67,15.48,15.23,19.85c5.04,2.91,10.63,4.39,16.29,4.39c2.84,0,5.7-0.37,8.51-1.13
		c8.43-2.26,15.48-7.67,19.85-15.23C390.99,295.79,385.62,275.76,370.01,266.75z M333.69,129.59c1.43-5.34,4.85-9.8,9.64-12.56
		c3.19-1.84,6.72-2.78,10.31-2.78c1.8,0,3.61,0.24,5.39,0.71c5.34,1.43,9.8,4.85,12.56,9.64c5.7,9.88,2.31,22.55-7.57,28.26
		c-4.78,2.76-10.36,3.5-15.7,2.07c-5.34-1.43-9.8-4.85-12.56-9.64S332.26,134.92,333.69,129.59z M94.25,145.28
		c-2.76,4.79-7.22,8.21-12.56,9.64c-5.34,1.43-10.91,0.7-15.7-2.07c-9.88-5.7-13.27-18.38-7.57-28.26
		c2.76-4.79,7.22-8.21,12.56-9.64c1.78-0.48,3.59-0.71,5.39-0.71c3.58,0,7.12,0.94,10.31,2.78c4.79,2.76,8.21,7.22,9.64,12.56
		C97.74,134.92,97.01,140.5,94.25,145.28z M96.31,300.41c-1.43,5.34-4.85,9.8-9.64,12.56s-10.36,3.5-15.7,2.07
		c-5.34-1.43-9.8-4.85-12.56-9.64c-5.7-9.88-2.31-22.55,7.57-28.26c4.79-2.76,10.36-3.5,15.7-2.07c5.34,1.43,9.8,4.85,12.56,9.64
		S97.74,295.08,96.31,300.41z M194.31,54.88c0-11.41,9.28-20.69,20.69-20.69s20.69,9.28,20.69,20.69S226.41,75.57,215,75.57
		S194.31,66.29,194.31,54.88z M235.69,375.12c0,11.41-9.28,20.69-20.69,20.69s-20.69-9.28-20.69-20.69s9.28-20.69,20.69-20.69
		S235.69,363.71,235.69,375.12z M215,296c-44.66,0-81-36.34-81-81s36.34-81,81-81s81,36.34,81,81S259.66,296,215,296z M371.58,305.4
		c-2.76,4.79-7.22,8.21-12.56,9.64c-5.34,1.43-10.91,0.7-15.7-2.07c-4.79-2.76-8.21-7.22-9.64-12.56c-1.43-5.34-0.7-10.91,2.07-15.7
		s7.22-8.21,12.56-9.64c1.78-0.48,3.59-0.71,5.39-0.71c3.58,0,7.12,0.94,10.31,2.78C373.89,282.85,377.29,295.52,371.58,305.4z"/>
</g>
</svg>
